<svg xmlns="http://www.w3.org/2000/svg" width="256" height="256" viewBox="0 0 100 100"><rect width="100" height="100" rx="0" fill="#040404"></rect><path fill="#990000" d="M30.80 70.29L30.80 70.29L30.80 67.72Q30.80 63.37 29.95 61.57Q29.10 59.77 28.62 59.10Q28.15 58.42 27.79 58.09Q27.44 57.75 27.44 57.57Q27.44 57.40 27.97 56.90Q28.50 56.41 29.14 55.62Q29.77 54.83 30.30 52.47Q30.84 50.12 30.84 46.64L30.84 46.64Q30.84 36.35 25.72 36.35Q20.59 36.35 20.59 46.64L20.59 46.64Q20.59 54.59 23.68 57.12L23.68 57.12Q24.03 57.44 24.02 57.57Q24.00 57.71 23.46 58.17Q22.93 58.62 22.53 59.22Q22.14 59.81 21.66 60.84L21.66 60.84Q20.59 63.09 20.59 66.43Q20.59 69.78 20.61 70.76Q20.63 71.75 20.73 73.20Q20.83 74.64 21.01 75.33Q21.19 76.02 21.56 76.89Q21.94 77.76 22.49 78.16L22.49 78.16Q23.88 79.07 25.18 79.07Q26.49 79.07 27.10 78.97Q27.71 78.87 28.21 78.61Q28.70 78.36 29.06 78.12Q29.41 77.88 29.69 77.31Q29.97 76.74 30.17 76.36Q30.36 75.98 30.48 75.13Q30.60 74.28 30.68 73.77L30.68 73.77Q30.80 72.58 30.80 70.29ZM35.11 79.07L35.11 79.07Q31.11 84.57 24.03 84.57L24.03 84.57Q18.10 84.57 13.51 80.30L13.51 80.30Q11.30 78.24 9.95 75.09Q8.61 71.95 8.61 69.06Q8.61 66.18 8.37 64.50Q8.14 62.81 7.80 61.83Q7.46 60.84 6.95 60.01Q6.43 59.18 6.08 58.84Q5.72 58.50 5.23 58.11Q4.73 57.71 4.66 57.63L4.66 57.63Q4.66 57.48 5.07 57.16Q5.49 56.84 6.06 56.21Q6.63 55.58 7.19 54.55L7.19 54.55Q8.61 52.02 8.61 46.64L8.61 46.64Q8.61 38.69 12.31 34.32Q16.01 29.95 21.78 29.95Q27.55 29.95 30.68 34.14L30.68 34.14Q29.89 24.73 26.25 17.77L26.25 17.77Q26.25 16.38 28.46 15.67L28.46 15.67Q29.30 15.43 30.44 15.43L30.44 15.43Q34.32 15.43 36.97 19.59L36.97 19.59Q37.17 19.19 37.94 18.30Q38.71 17.41 39.42 16.86L39.42 16.86Q41.36 15.43 43.32 15.43Q45.27 15.43 46.30 16.03Q47.33 16.62 47.49 17.17L47.49 17.17L47.65 17.77Q44.96 21.21 43.91 25.22Q42.86 29.24 42.86 36.59L42.86 36.59L42.86 46.64Q42.86 54.75 46.82 57.16L46.82 57.16Q47.29 57.44 47.29 57.59Q47.29 57.75 46.86 58.03Q46.42 58.31 45.79 58.90Q45.16 59.49 44.52 60.44L44.52 60.44Q43.02 62.77 42.86 67.56L42.86 67.56Q42.90 72.90 43.95 75.91Q45.00 78.91 47.65 81.44L47.65 81.44Q47.65 82.87 45.43 83.54L45.43 83.54Q44.60 83.82 43.49 83.82L43.49 83.82Q38.95 83.82 35.11 79.07ZM56.51 15.43L56.51 15.43Q60.38 15.43 63.03 19.59L63.03 19.59Q63.15 19.43 63.33 19.15Q63.51 18.87 64.16 18.14Q64.81 17.41 65.48 16.86L65.48 16.86Q67.38 15.43 69.36 15.43Q71.34 15.43 72.39 16.03Q73.43 16.62 73.59 17.17L73.59 17.17L73.75 17.77Q70.11 24.73 69.32 34.14L69.32 34.14Q74.46 29.95 79.54 29.95Q84.63 29.95 88.01 34.32Q91.39 38.69 91.39 46.64L91.39 46.64Q91.39 54.47 94.91 57.16L94.91 57.16Q95.34 57.48 95.34 57.63L95.34 57.63Q95.27 57.71 94.77 58.11Q94.28 58.50 93.92 58.84Q93.57 59.18 93.05 60.01Q92.54 60.84 92.22 61.83L92.22 61.83Q91.39 64.20 91.39 68.07Q91.39 71.95 90.05 75.09Q88.70 78.24 86.53 80.30L86.53 80.30Q81.90 84.57 75.39 84.57Q68.89 84.57 64.89 79.07L64.89 79.07Q61.05 83.82 56.51 83.82L56.51 83.82Q54.29 83.82 53.62 83.22L53.62 83.22Q52.47 82.27 52.35 81.48L52.35 81.48Q55.00 78.91 56.05 75.93Q57.10 72.94 57.14 67.56L57.14 67.56Q56.90 60.44 53.14 58.03L53.14 58.03Q52.71 57.75 52.71 57.59Q52.71 57.44 53.16 57.16Q53.62 56.88 54.27 56.27Q54.92 55.66 55.60 54.63L55.60 54.63Q57.14 52.18 57.14 46.64L57.14 46.64L57.14 36.59Q57.14 29.24 56.09 25.22Q55.04 21.21 52.35 17.77L52.35 17.77Q52.35 16.34 54.57 15.67L54.57 15.67Q55.40 15.43 56.51 15.43ZM69.20 67.72L69.20 67.72L69.20 70.33Q69.20 75.11 70.07 76.30L70.07 76.30Q70.98 77.57 71.54 77.80L71.54 77.80Q73.59 78.60 75.13 78.30Q76.68 78.00 77.21 77.59Q77.74 77.17 78.12 76.78Q78.50 76.38 78.73 75.57Q78.97 74.76 79.11 74.15Q79.25 73.53 79.33 72.31L79.33 72.31Q79.41 70.25 79.41 67.88Q79.41 65.50 79.13 63.70Q78.85 61.90 78.36 60.86Q77.86 59.81 77.47 59.22Q77.07 58.62 76.54 58.17Q76.00 57.71 75.98 57.57Q75.97 57.44 76.32 57.14Q76.68 56.84 77.17 56.25Q77.67 55.66 78.18 54.67L78.18 54.67Q79.41 52.25 79.41 46.64L79.41 46.64Q79.41 37.15 74.28 37.15Q69.16 37.15 69.16 46.64L69.16 46.64Q69.16 50.12 69.70 52.47Q70.23 54.83 70.86 55.62Q71.50 56.41 72.03 56.90Q72.56 57.40 72.56 57.57Q72.56 57.75 72.21 58.09Q71.85 58.42 71.38 59.10Q70.90 59.77 70.39 60.84L70.39 60.84Q69.20 63.37 69.20 67.72Z"></path></svg>