<svg width="36" height="36" viewBox="0 0 36 36" fill="none" xmlns="http://www.w3.org/2000/svg">
<path d="M23.1578 19.6907L26.3372 29.9478L18.0037 23.6056L9.65782 30L12.8496 19.6515L4.52856 13.2963H14.8243L18.0037 3L21.1831 13.2963H31.5286L23.1578 19.6907ZM19.6183 22.392L22.7977 24.8192L21.5805 20.8913L19.6183 22.392ZM16.7618 13.2963H19.2457L18.0037 9.34219L16.7618 13.2963ZM16.4389 22.392L14.4393 20.8652L13.1974 24.8714L16.4389 22.392ZM25.8032 15.2537H21.7917L22.5617 17.7332L25.8032 15.2537ZM16.1781 15.2537L15.0479 18.9077L18.0037 21.1783L20.972 18.9338L19.8294 15.2537H16.1781ZM10.254 15.2537L13.4582 17.6941L14.2158 15.2537H10.254Z" fill="black"/>
<path d="M18 32.4C14.1809 32.4 10.5182 30.8829 7.81766 28.1823C5.11714 25.4818 3.6 21.8191 3.6 18C3.6 14.1809 5.11714 10.5182 7.81766 7.81766C10.5182 5.11714 14.1809 3.6 18 3.6C21.8191 3.6 25.4818 5.11714 28.1823 7.81766C30.8829 10.5182 32.4 14.1809 32.4 18C32.4 21.8191 30.8829 25.4818 28.1823 28.1823C25.4818 30.8829 21.8191 32.4 18 32.4ZM18 0C15.6362 0 13.2956 0.465584 11.1117 1.37017C8.92784 2.27475 6.94353 3.60062 5.27208 5.27208C1.89642 8.64773 -1.41253e-06 13.2261 -1.41253e-06 18C-1.41253e-06 22.7739 1.89642 27.3523 5.27208 30.7279C6.94353 32.3994 8.92784 33.7252 11.1117 34.6298C13.2956 35.5344 15.6362 36 18 36C22.7739 36 27.3523 34.1036 30.7279 30.7279C34.1036 27.3523 36 22.7739 36 18C36 15.6362 35.5344 13.2956 34.6298 11.1117C33.7252 8.92784 32.3994 6.94353 30.7279 5.27208C29.0565 3.60062 27.0722 2.27475 24.8883 1.37017C22.7044 0.465584 20.3638 0 18 0Z" fill="black"/>
</svg>
