<svg width="35" height="34" viewBox="0 0 35 34" fill="none" xmlns="http://www.w3.org/2000/svg">
<path d="M34.5 16.9561C34.5108 20.2964 33.5403 23.566 31.7095 26.3579C29.8786 29.1498 27.2682 31.3407 24.2033 32.6578C21.1384 33.9749 17.7544 34.36 14.4726 33.7652C11.1907 33.1703 8.1561 31.6218 5.7465 29.3124C3.3369 27.0031 1.65879 24.0348 0.92109 20.7773C0.183392 17.5198 0.418674 14.117 1.59769 10.9924C2.77671 7.86786 4.84738 5.15964 7.55184 3.20498C10.2563 1.25032 13.4751 0.135564 16.8075 -0.000512442C19.0917 -0.0937885 21.3712 0.275287 23.5098 1.08471C25.6483 1.89412 27.6018 3.12725 29.2535 4.71027C30.9052 6.29328 32.2212 8.19367 33.1226 10.2978C34.0241 12.4019 34.4925 14.6665 34.5 16.9561ZM8.27282 17.2162C8.27282 18.7073 8.27282 20.1984 8.27282 21.6721C8.28906 22.3683 8.46075 23.052 8.77529 23.6731C9.08984 24.2941 9.53928 24.8367 10.0906 25.2611C11.1233 26.0468 12.3953 26.451 13.6914 26.4054H20.9449C21.4797 26.4059 22.0131 26.3536 22.5376 26.2493C23.5859 26.0425 24.5371 25.4958 25.2443 24.6936C25.9514 23.8913 26.3751 22.8783 26.45 21.8108C26.45 20.6145 26.5366 19.4181 26.5366 18.2218C26.5366 16.3493 26.5366 14.4594 26.45 12.6043C26.3791 11.367 25.8367 10.2042 24.9348 9.35575C24.0328 8.50729 22.8402 8.03785 21.6028 8.04434C18.9022 8.04434 16.2016 8.04434 13.501 8.04434C13.0292 8.04391 12.5589 8.09624 12.0987 8.20037C11.0287 8.43343 10.0679 9.02009 9.37086 9.86598C8.67383 10.7119 8.28102 11.7679 8.25554 12.8643C8.23823 14.3207 8.27282 15.7771 8.27282 17.1642V17.2162Z" fill="white"/>
<path d="M17.3791 12.4489C18.018 12.4099 18.6581 12.5024 19.26 12.7205C19.8619 12.9385 20.4129 13.2777 20.8791 13.717C21.3452 14.1563 21.7166 14.6866 21.9705 15.275C22.2245 15.8635 22.3554 16.4977 22.3554 17.1388C22.3554 17.7798 22.2245 18.4141 21.9705 19.0026C21.7166 19.5911 21.3452 20.1213 20.8791 20.5606C20.4129 21 19.8619 21.3391 19.26 21.5572C18.6581 21.7753 18.018 21.8677 17.3791 21.8288C16.7402 21.8677 16.1001 21.7753 15.4982 21.5572C14.8963 21.3391 14.3453 21 13.8792 20.5606C13.413 20.1213 13.0416 19.5911 12.7877 19.0026C12.5338 18.4141 12.4028 17.7798 12.4028 17.1388C12.4028 16.4977 12.5338 15.8635 12.7877 15.275C13.0416 14.6866 13.413 14.1563 13.8792 13.717C14.3453 13.2777 14.8963 12.9385 15.4982 12.7205C16.1001 12.5024 16.7402 12.4099 17.3791 12.4489ZM17.3791 14.0786C16.7725 14.0684 16.1764 14.2388 15.6666 14.5681C15.1567 14.8975 14.7559 15.3711 14.515 15.9288C14.2741 16.4865 14.204 17.1033 14.3136 17.701C14.4231 18.2987 14.7073 18.8504 15.1302 19.2861C15.5531 19.7218 16.0957 20.022 16.6892 20.1486C17.2826 20.2751 17.9002 20.2224 18.4636 19.9971C19.0271 19.7717 19.5111 19.3839 19.8543 18.8828C20.1975 18.3817 20.3844 17.7898 20.3913 17.1822C20.4006 16.3712 20.089 15.5895 19.5245 15.008C18.9601 14.4264 18.1888 14.0923 17.3791 14.0786Z" fill="white"/>
<path d="M22.243 13.3156C22.1006 13.3179 21.9592 13.2918 21.8269 13.2388C21.6947 13.1858 21.5743 13.107 21.4728 13.007C21.3713 12.9069 21.2907 12.7876 21.2357 12.656C21.1806 12.5245 21.1523 12.3833 21.1523 12.2406C21.1522 11.9477 21.266 11.6661 21.4696 11.4557C21.6732 11.2454 21.9506 11.1227 22.243 11.1137C22.3891 11.1113 22.5343 11.1384 22.6698 11.1934C22.8052 11.2483 22.9283 11.3299 23.0316 11.4334C23.135 11.5369 23.2165 11.6602 23.2713 11.7959C23.3262 11.9316 23.3533 12.0769 23.351 12.2233C23.3586 12.3702 23.3351 12.5172 23.2819 12.6543C23.2287 12.7915 23.147 12.9158 23.0423 13.0191C22.9376 13.1223 22.8122 13.2021 22.6744 13.2533C22.5366 13.3044 22.3896 13.3256 22.243 13.3156Z" fill="white"/>
<defs>
<clipPath id="clip0_306_405">
<rect width="34" height="34" fill="white" transform="translate(0.5)"/>
</clipPath>
</defs>
</svg>
