<svg width="126" height="50" viewBox="0 0 126 50" fill="none" xmlns="http://www.w3.org/2000/svg">
<path d="M24.1124 18.7845C24.125 37.0415 24.1124 37.6049 23.8744 38.3841C23.1604 40.7216 21.5069 42.6636 19.3398 43.6826C17.6862 44.4618 16.8595 44.6416 14.9679 44.6416C13.0764 44.6416 12.2496 44.4618 10.5961 43.6826C8.31626 42.6037 6.62516 40.5418 5.96124 38.0125C5.12195 34.7878 6.39967 31.0717 9.05534 29.0698C12.3749 26.5404 17.11 26.4445 20.5423 28.818L21.1687 29.2496L21.2062 26.2287C21.2188 24.5625 21.2062 23.1359 21.1812 23.064C21.1186 22.9082 19.678 22.4047 18.2249 22.0331C17.3104 21.7933 16.8595 21.7574 14.9679 21.7574C12.9762 21.7574 12.663 21.7813 11.5231 22.081C7.82772 23.052 5.18458 24.6823 3.15526 27.2836C1.68963 29.1537 0.637387 31.4912 0.324219 33.625C0.236532 34.1525 0.123791 34.8837 0.0611578 35.2433C-0.0265292 35.6749 -0.0140025 36.0585 0.0611578 36.3222C0.136318 36.55 0.186425 36.9696 0.186425 37.2453C0.186425 37.8566 0.474539 39.2352 0.825287 40.2781C1.8149 43.2151 3.6939 45.7324 6.07398 47.3388C8.72964 49.1369 11.6233 50 14.9679 50C18.3126 50 21.2062 49.1369 23.8619 47.3388C26.8433 45.3249 29.0855 41.7526 29.6117 38.1803C29.6994 37.6528 29.8121 36.8617 29.8747 36.4061C29.9499 35.9146 30 28.5543 30 17.8015V-1.89617e-06H27.0562H24.0999L24.1124 18.7845Z" fill="white"/>
<path d="M45.7106 21.168C42.6601 21.6314 40.0255 22.8997 37.7817 24.9851C36.3195 26.3387 35.6262 27.1923 34.8068 28.6435C31.2647 34.924 33.0673 42.8751 39.0171 47.1921C43.3408 50.3262 49.7696 50.875 54.5975 48.5336C56.4505 47.6189 58.9968 45.6312 60.4969 43.8995L60.9759 43.3385L59.8162 41.7044C59.1859 40.8019 58.4296 39.6678 58.1397 39.18L57.6228 38.302L57.0808 38.9971C56.1858 40.1556 54.8622 41.5336 53.9546 42.2288C52.0008 43.7653 50.6016 44.2897 48.2948 44.3751C46.4039 44.436 45.2442 44.2287 43.7315 43.5214C42.8366 43.1068 42.4584 42.8385 41.4499 41.8507C39.4961 39.9605 38.765 38.2532 38.765 35.5581C38.7524 33.8508 38.9541 33.0094 39.6852 31.5338C41.2104 28.4606 44.3366 26.5948 47.967 26.5948C52.6184 26.5948 55.3412 28.7899 60.3582 36.5947C62.1356 39.3507 63.6861 41.619 64.1273 42.058C64.3164 42.2653 64.4676 42.4605 64.4424 42.4848C64.3668 42.558 65.8795 44.2409 67.0518 45.3751C69.5351 47.7897 72.636 49.3506 75.9261 49.8262C77.527 50.0579 78.5858 50.0579 80.2246 49.8262C83.3633 49.375 85.9979 48.1067 88.3047 45.9482C89.8174 44.5336 90.5737 43.558 91.3679 42.0214C92.1746 40.4605 92.4519 39.6434 92.7545 38.0093C93.9268 31.7655 90.8258 25.5826 85.0651 22.6436C80.9557 20.5461 75.5101 20.4729 71.4133 22.4607C69.5603 23.3631 67.014 25.3631 65.5139 27.0948L65.0349 27.6558L65.7156 28.6557C66.0938 29.2045 66.4089 29.7045 66.4341 29.7533C66.5223 29.985 68.3754 32.4362 68.451 32.4484C68.5014 32.4484 68.867 32.0216 69.2704 31.4972C70.304 30.1557 72.031 28.546 73.115 27.8997C74.5899 27.0216 75.7622 26.6924 77.6404 26.6192C79.5943 26.546 80.7414 26.7655 82.2793 27.4728C83.1743 27.8875 83.5524 28.1558 84.5609 29.1435C86.5147 31.0338 87.2458 32.7411 87.2584 35.4362C87.2584 37.1434 87.0568 37.9971 86.3382 39.4605C84.7878 42.5336 81.6742 44.3995 78.0438 44.3995C73.3924 44.3995 70.6696 42.2044 65.6526 34.3996C62.8793 30.0704 61.2406 27.8875 59.4002 26.046C55.5303 22.168 50.652 20.4241 45.7106 21.168Z" fill="white"/>
<path d="M96 17.8015C96 28.5543 96.0501 35.9146 96.1253 36.4061C96.1879 36.8617 96.3006 37.6528 96.3883 38.1803C96.9145 41.7526 99.1567 45.3249 102.138 47.3388C104.794 49.1369 107.687 50 111.032 50C112.873 50 114.414 49.7722 115.93 49.2807C120.452 47.8183 123.684 44.6655 125.175 40.2781C125.525 39.2352 125.814 37.8566 125.814 37.2453C125.814 36.9696 125.864 36.55 125.939 36.3222C126.014 36.0585 126.027 35.6749 125.939 35.2433C125.876 34.8837 125.763 34.1525 125.676 33.625C125.363 31.4912 124.31 29.1537 122.845 27.2836C120.815 24.6823 118.172 23.052 114.477 22.081C113.337 21.7813 113.024 21.7574 111.032 21.7574C109.141 21.7574 108.69 21.7933 107.775 22.0331C106.322 22.4047 104.881 22.9082 104.819 23.064C104.794 23.1359 104.781 24.5625 104.794 26.2287L104.831 29.2496L105.458 28.818C108.89 26.4445 113.625 26.5404 116.945 29.0698C118.974 30.5922 120.302 33.3134 120.302 35.9027C120.302 39.2112 118.36 42.292 115.404 43.6826C113.75 44.4618 112.924 44.6416 111.032 44.6416C109.141 44.6416 108.314 44.4618 106.66 43.6826C104.493 42.6636 102.84 40.7216 102.126 38.3841C101.888 37.6049 101.875 37.0415 101.888 18.7845L101.9 -1.89617e-06H98.9438H96V17.8015Z" fill="white"/>
</svg>
