<svg width="35" height="34" viewBox="0 0 35 34" fill="none" xmlns="http://www.w3.org/2000/svg">
<path d="M34.4993 17.0152C34.4799 17.541 34.4763 18.0681 34.4365 18.5927C34.3809 19.3369 34.2457 20.0706 34.0772 20.7973C33.4864 23.3455 32.3903 25.6523 30.7403 27.6843C28.5718 30.3559 25.845 32.2119 22.5599 33.2524C21.4458 33.6006 20.2998 33.8369 19.1389 33.9576C18.8476 33.988 18.5548 34.002 18.262 33.9995C17.4876 33.9949 16.7132 34.0116 15.9422 33.9547C15.3022 33.9074 14.6633 33.7948 14.0337 33.6639C11.6667 33.1722 9.48801 32.2359 7.53494 30.8051C4.40526 28.5129 2.28141 25.5063 1.1634 21.7856C0.858045 20.7726 0.647502 19.7371 0.563787 18.6831C0.508536 17.9963 0.492211 17.3037 0.505187 16.6145C0.579484 12.6009 1.9566 9.06678 4.52895 6.00702C6.99854 3.06847 10.1502 1.23098 13.886 0.38236C14.6246 0.214897 15.3734 0.12028 16.1264 0.047434C16.9244 -0.0295989 17.7222 0.00201015 18.5188 0.0413639C21.2169 0.174078 23.73 0.949013 26.0552 2.3107C29.1592 4.12837 31.4647 6.6759 32.9717 9.95329C33.5774 11.2691 33.9897 12.6463 34.2524 14.0706C34.4285 15.042 34.5112 16.028 34.4993 17.0152ZM22.9423 27.4103C23.2853 27.3707 23.468 27.2233 23.5389 26.9001C23.7332 26.0161 23.9291 25.1323 24.1155 24.2469C24.5404 22.2302 24.9623 20.2129 25.3813 18.195C25.757 16.3851 26.1293 14.5744 26.4981 12.7629C26.7825 11.3604 27.0564 9.95622 27.3317 8.55204C27.342 8.48768 27.3348 8.42172 27.3107 8.36113C27.2809 8.28449 27.2356 8.21483 27.1777 8.15654C27.1197 8.09826 27.0503 8.0526 26.9738 8.02244C26.8511 7.97115 26.7323 7.95796 26.6014 8.01469C26.4039 8.10052 26.1979 8.16687 25.9966 8.24496C20.781 10.2507 15.5656 12.2572 10.3503 14.2644C8.70737 14.8976 7.06928 15.5432 5.4293 16.1844C5.22273 16.2652 5.05258 16.5061 5.05112 16.7054C5.05112 16.8226 5.08624 16.937 5.15194 17.0341C5.21763 17.1311 5.31089 17.2062 5.41967 17.2496C6.00875 17.4816 6.59901 17.711 7.19046 17.9379C8.27289 18.3511 9.3563 18.7618 10.4407 19.17C10.5374 19.2067 10.5891 19.2636 10.6203 19.363C10.8312 20.0373 11.0503 20.7088 11.2628 21.3826C11.7067 22.7899 12.1458 24.1977 12.592 25.6048C12.7202 26.0086 13.1989 26.149 13.5321 25.8853C14.0344 25.4876 14.5321 25.0821 15.0318 24.6802C15.4935 24.309 15.9544 23.9367 16.4173 23.5672C16.7122 23.3319 17.0224 23.3053 17.3442 23.514C17.5282 23.6333 17.7174 23.7455 17.8953 23.8736C19.1255 24.7595 20.3546 25.6464 21.5825 26.5344C21.9444 26.7948 22.3117 27.0479 22.6809 27.2978C22.7579 27.3502 22.8546 27.3734 22.9423 27.4103Z" fill="white"/>
<path d="M11.7959 18.9913C11.7988 18.6838 11.9215 18.4366 12.1778 18.2748C13.38 17.5168 14.5813 16.7576 15.7912 16.013C17.8877 14.7216 19.9875 13.4355 22.0907 12.1548C22.1745 12.104 22.2605 12.0588 22.3419 12.0064C22.4233 11.9541 22.4807 11.9911 22.5315 12.0516C22.5824 12.1121 22.5665 12.1682 22.5091 12.2229C21.9415 12.7642 21.3806 13.3126 20.8082 13.8487C18.7017 15.821 16.593 17.7914 14.4823 19.76C14.3567 19.8766 14.2408 20.0015 14.1173 20.1194C13.8662 20.3584 13.7651 20.6682 13.7115 20.9948C13.6205 21.5516 13.543 22.1105 13.4576 22.6682C13.4346 22.8195 13.4059 22.97 13.3739 23.1199C13.348 23.2455 13.2726 23.3049 13.1485 23.3112C13.0343 23.3171 12.9798 23.2823 12.9392 23.1519C12.6866 22.3138 12.4275 21.4765 12.1852 20.6331C12.0477 20.1552 11.9386 19.6702 11.8193 19.1862C11.8036 19.1226 11.8024 19.0552 11.7959 18.9913Z" fill="white"/>
<defs>
<clipPath id="clip0_306_400">
<rect width="34" height="34" fill="white" transform="translate(0.5)"/>
</clipPath>
</defs>
</svg>
