<svg width="35" height="34" viewBox="0 0 35 34" fill="none" xmlns="http://www.w3.org/2000/svg">
<path d="M17.4996 34C8.11527 33.9994 0.499023 26.3865 0.499023 17.005C0.499023 7.60789 8.11918 -0.00668434 17.5157 4.40324e-06C26.8956 0.00613575 34.5029 7.62462 34.4996 17.0089C34.4962 26.3932 26.88 34.0011 17.4996 34ZM19.4744 13.5018H19.4711C19.4711 12.8329 19.475 12.164 19.4711 11.4952C19.4684 11.3282 19.4497 11.1619 19.4153 10.9985C19.3111 10.4941 19.0174 10.2421 18.4995 10.2388C17.2454 10.2316 15.9913 10.2388 14.7371 10.2388C14.5226 10.2323 14.3097 10.2774 14.1162 10.3702C13.9227 10.463 13.7543 10.6009 13.6251 10.7722C13.4579 10.9857 13.4752 11.0844 13.7366 11.1379C14.4768 11.2867 14.7884 11.7884 14.8798 12.489C15.016 13.5031 15.0229 14.5304 14.9004 15.5463C14.8477 15.9018 14.7443 16.248 14.5933 16.5742C14.4818 16.8261 14.2427 16.8908 14.0069 16.7414C13.7455 16.5742 13.478 16.3841 13.2912 16.1433C12.9011 15.6377 12.5142 15.1177 12.2088 14.5586C11.6581 13.5503 11.1559 12.5146 10.6587 11.479C10.4441 11.0331 10.1626 10.7115 9.64086 10.7076C8.50712 10.7003 7.37394 10.6936 6.24075 10.7126C5.59975 10.7232 5.41748 11.032 5.65047 11.6289C5.66719 11.6724 5.68336 11.7159 5.70287 11.7583C6.74185 13.9906 7.81985 16.1979 9.18659 18.2541C10.1002 19.6276 11.0723 20.9503 12.3888 21.9748C14.2923 23.4563 16.4645 23.9502 18.8329 23.6943C19.1874 23.6559 19.3903 23.4675 19.4566 23.1174C19.509 22.8354 19.5274 22.5466 19.5586 22.2607C19.6143 21.759 19.7108 21.268 20.0407 20.8611C20.2637 20.5824 20.519 20.5116 20.8283 20.676C21.0676 20.7971 21.2874 20.9532 21.4805 21.1392C21.9939 21.6632 22.4782 22.215 22.981 22.7495C23.5261 23.3298 24.1621 23.7489 24.9876 23.7529C26.2044 23.7629 27.4212 23.7528 28.638 23.7489C29.1664 23.7462 29.497 23.3588 29.4184 22.827C29.3952 22.6431 29.333 22.4661 29.2361 22.3081C28.9607 21.8906 28.6949 21.4569 28.3565 21.0935C27.6615 20.3455 26.9251 19.6365 26.2 18.9197C25.3667 18.0931 25.3438 17.7313 26.0378 16.7904C26.9196 15.5931 27.7997 14.3947 28.6564 13.1818C29.0296 12.6698 29.2911 12.0851 29.4239 11.4656C29.4975 11.1005 29.3793 10.8932 29.0154 10.7968C28.7831 10.7358 28.5443 10.7033 28.3041 10.6998C27.1526 10.6897 26.0004 10.6947 24.8483 10.6947C24.1198 10.6947 23.9503 10.8096 23.6778 11.4801C23.1142 12.8686 22.4654 14.2114 21.5758 15.4248C21.278 15.8282 20.952 16.21 20.6004 16.5675C20.2793 16.8947 19.8791 16.8289 19.6952 16.4114C19.5682 16.1156 19.4957 15.7993 19.4811 15.4778C19.4505 14.8223 19.4722 14.1612 19.4722 13.5018H19.4744Z" fill="white"/>
<defs>
<clipPath id="clip0_306_414">
<rect width="34" height="34" fill="white" transform="translate(0.5)"/>
</clipPath>
</defs>
</svg>
