<svg width="35" height="34" viewBox="0 0 35 34" fill="none" xmlns="http://www.w3.org/2000/svg">
<path d="M18.5665 34.0001H16.4411C16.4026 33.969 16.359 33.945 16.3122 33.929C15.5882 33.8367 14.8576 33.7836 14.141 33.6514C12.9342 33.4287 11.7596 33.0575 10.644 32.5464C9.11036 31.8452 7.65512 31.0091 6.4257 29.8424C5.62269 29.08 4.823 28.3011 4.12228 27.4471C3.21584 26.3307 2.47641 25.0885 1.92712 23.7596C1.48411 22.707 1.11481 21.6346 0.90493 20.5057C0.788696 19.8808 0.688403 19.2526 0.582132 18.6357L0.527669 18.7512C0.612685 17.5991 0.357635 16.4442 0.628626 15.2941C0.804637 14.5457 0.850466 13.7667 1.01386 13.015C1.32138 11.5966 1.87731 10.2691 2.55678 8.98749C3.28684 7.60793 4.20983 6.33944 5.2979 5.22026C5.83789 4.66378 6.43765 4.16108 7.04007 3.66968C8.48536 2.49097 10.1126 1.62901 11.8641 1.0028C13.1412 0.539525 14.4745 0.249188 15.8287 0.139522C16.101 0.118936 16.37 0.0485449 16.6403 0.000732422H18.4336C18.4945 0.0338229 18.5595 0.0588263 18.6269 0.0751081C19.2439 0.147491 19.8696 0.174717 20.4787 0.2896C22.3603 0.633533 24.1726 1.28412 25.8434 2.21538C27.6765 3.24993 29.3049 4.61109 30.6481 6.23163C31.7421 7.54834 32.6229 9.02835 33.2584 10.6178C34.0527 12.5557 34.4734 14.6263 34.4984 16.7205C34.5089 17.2477 34.4867 17.7751 34.432 18.2996C34.3351 19.1523 34.2328 20.0083 34.0641 20.8476C33.8429 21.9327 33.5081 22.9926 33.0014 23.98C32.5331 24.8858 32.0715 25.8029 31.5096 26.6489C30.7504 27.7871 29.867 28.8403 28.7964 29.7082C28.0963 30.276 27.4016 30.8703 26.6324 31.3305C25.66 31.9044 24.6514 32.4146 23.613 32.8579C22.3225 33.417 20.9562 33.7212 19.5528 33.8686C19.218 33.8945 18.8932 33.9529 18.5665 34.0001ZM27.1923 17.2657L27.0781 17.2624C27.0781 16.425 27.1213 15.5843 27.0655 14.7502C27.0158 13.9739 26.9047 13.2027 26.7334 12.4439C26.5042 11.4478 25.846 10.809 24.8318 10.6125C24.2704 10.5086 23.7021 10.4466 23.1315 10.4272C21.6417 10.3654 20.1512 10.311 18.6608 10.2944C17.3988 10.2817 16.1415 10.3196 14.8815 10.3501C13.415 10.386 11.9478 10.4378 10.4813 10.483C9.81706 10.5035 9.16947 10.6078 8.59296 10.9823C7.79592 11.5003 7.54951 12.337 7.42398 13.181C7.28805 14.1626 7.21616 15.1519 7.20878 16.1428C7.18752 17.3454 7.20878 18.5513 7.2752 19.7519C7.32473 20.5388 7.43576 21.3206 7.60729 22.0901C7.82116 23.0696 8.47739 23.6839 9.45508 23.8831C10.0461 24.0036 10.6458 24.0769 11.2484 24.1022C12.7043 24.1686 14.1615 24.2191 15.6188 24.235C16.9777 24.247 18.3373 24.2105 19.6963 24.1786C21.0745 24.1454 22.452 24.0903 23.8302 24.0458C24.857 24.0139 25.8181 23.8094 26.4053 22.8624C26.7845 22.2495 26.9479 21.5423 27.003 20.8297C27.0907 19.6444 27.1345 18.4537 27.1923 17.2644V17.2657Z" fill="white"/>
<path d="M15.1479 20.0354V14.4692L20.5126 17.2583L15.1479 20.0354Z" fill="white"/>
<defs>
<clipPath id="clip0_306_416">
<rect width="34" height="34" fill="white" transform="translate(0.5)"/>
</clipPath>
</defs>
</svg>
